<?xml version="1.0" standalone="no"?>
<!DOCTYPE svg PUBLIC "-//W3C//DTD SVG 20010904//EN"
 "http://www.w3.org/TR/2001/REC-SVG-20010904/DTD/svg10.dtd">
<svg version="1.0" xmlns="http://www.w3.org/2000/svg"
 width="270.000000pt" height="270.000000pt" viewBox="0 0 270.000000 270.000000"
 preserveAspectRatio="xMidYMid meet">
<metadata>
Created by potrace 1.14, written by Peter Selinger 2001-2017
</metadata>
<g transform="translate(0.000000,270.000000) scale(0.100000,-0.100000)"
fill="#000000" stroke="none">
<path d="M615 2250 c-3 -5 -2 -16 2 -27 6 -16 5 -17 -12 -3 -17 14 -18 13 -13
-2 4 -10 1 -19 -7 -22 -9 -3 -12 -12 -8 -22 4 -11 2 -15 -4 -11 -12 8 -12 -18
0 -29 10 -10 9 -26 -1 -20 -5 3 -9 -1 -9 -9 0 -8 4 -12 8 -9 10 6 4 -59 -7
-78 -6 -9 -2 -9 11 2 12 9 16 10 11 2 -14 -23 -16 -73 -3 -65 7 4 7 0 -2 -10
-10 -13 -10 -17 -1 -17 9 0 9 -4 -1 -17 -11 -13 -11 -17 -1 -20 6 -3 12 -9 12
-14 0 -6 -5 -7 -11 -3 -7 4 -7 -1 1 -16 8 -15 8 -20 1 -16 -6 4 -11 2 -11 -3
0 -6 5 -11 10 -11 12 0 9 -22 -5 -32 -6 -4 -1 -8 9 -8 20 0 20 0 0 -15 -12 -9
-14 -14 -6 -15 8 0 10 -5 5 -12 -13 -22 -13 -40 1 -29 8 7 11 3 11 -15 -1 -13
-5 -27 -10 -31 -4 -5 -5 -2 -1 5 4 6 2 12 -3 12 -14 0 -14 -17 -1 -25 8 -5 7
-12 -2 -23 -10 -12 -10 -14 0 -8 16 9 16 -6 0 -23 -11 -11 -10 -13 2 -9 11 4
16 -1 16 -13 0 -12 -5 -18 -13 -15 -9 4 -8 -2 3 -19 9 -14 13 -25 9 -25 -4 0
-2 -7 5 -16 11 -12 11 -15 -1 -12 -9 2 -14 -5 -13 -18 1 -17 -3 -20 -19 -16
-13 3 -18 1 -14 -6 8 -11 -11 -11 -30 1 -6 4 -14 1 -17 -5 -5 -10 -7 -10 -12
0 -3 6 -10 12 -15 12 -6 0 -7 -4 -4 -10 3 -5 0 -10 -9 -10 -8 0 -16 6 -19 13
-3 9 -8 9 -18 -2 -12 -12 -12 -13 0 -6 10 6 12 4 6 -5 -6 -10 -11 -9 -21 4 -6
10 -14 12 -16 6 -8 -26 -70 -14 -77 15 -2 6 -7 9 -13 7 -5 -1 -7 2 -3 8 3 6
12 7 18 3 7 -4 6 0 -2 10 -11 14 -11 17 0 17 12 0 12 2 0 9 -9 6 -10 14 -5 22
13 21 12 32 -5 52 -13 16 -13 17 0 12 17 -6 20 19 5 43 -4 7 -2 12 6 12 9 0 9
3 -2 10 -13 9 -13 11 0 20 10 6 11 10 3 10 -7 0 -13 11 -13 24 0 13 6 27 13
29 10 4 10 6 0 6 -7 1 -13 8 -13 17 0 8 5 12 11 8 6 -3 3 6 -7 22 -11 15 -14
25 -7 21 6 -4 14 -3 18 3 3 5 2 10 -3 10 -6 0 -12 7 -15 14 -4 11 -1 13 10 9
13 -5 12 -1 -3 23 -11 15 -14 25 -7 21 6 -4 14 -3 18 3 3 5 1 10 -4 10 -6 0
-10 3 -10 8 1 4 0 9 -1 12 -6 16 -5 48 1 44 4 -2 10 0 14 6 3 5 -2 10 -12 10
-15 0 -16 2 -3 10 13 9 13 10 0 11 -10 0 -8 3 5 9 11 5 14 9 6 9 -10 1 -11 4
-2 15 9 11 9 16 0 22 -8 5 -9 3 -4 -6 5 -9 4 -11 -4 -6 -9 6 -9 11 0 22 6 8 8
14 3 14 -5 0 -2 5 6 10 12 8 12 10 1 10 -11 0 -11 3 -1 15 11 13 10 14 -3 9
-12 -4 -14 -1 -10 17 5 18 3 21 -11 16 -9 -4 -14 -3 -11 2 8 14 -9 21 -25 11
-9 -5 -20 -4 -28 3 -11 9 -17 7 -27 -6 -6 -9 -15 -14 -18 -11 -4 4 -9 -12 -13
-34 -4 -23 -10 -39 -14 -37 -10 6 -7 -21 3 -31 4 -4 2 -13 -4 -21 -9 -10 -8
-13 1 -13 7 0 5 -7 -7 -17 -10 -10 -14 -15 -9 -10 18 13 23 8 20 -20 -1 -16
-3 -28 -4 -28 -1 0 -3 -8 -5 -18 -2 -9 1 -15 6 -11 5 3 9 0 9 -5 0 -6 -6 -11
-12 -11 -9 0 -8 -4 2 -10 8 -5 11 -10 5 -10 -5 0 -3 -5 5 -10 12 -8 12 -10 -5
-10 -11 0 -15 -4 -10 -8 16 -11 19 -46 3 -36 -10 6 -10 4 1 -9 7 -9 11 -23 8
-31 -3 -7 0 -19 6 -25 8 -8 6 -11 -8 -11 -13 0 -16 -3 -8 -8 6 -4 11 -29 10
-60 -1 -29 2 -52 8 -52 6 0 3 -5 -5 -10 -11 -7 -11 -10 -2 -10 8 0 10 -5 6
-12 -7 -10 -9 -66 -4 -85 1 -5 1 -19 0 -32 -1 -17 2 -21 12 -16 7 4 2 -3 -12
-15 -14 -12 -18 -18 -10 -14 13 7 13 6 1 -9 -8 -10 -16 -15 -18 -13 -3 3 -16
1 -29 -4 -13 -5 -23 -6 -23 -2 3 20 -2 33 -11 27 -6 -4 -7 -11 -4 -17 5 -7 0
-9 -14 -6 -14 4 -19 2 -16 -7 3 -6 -2 -18 -11 -25 -19 -16 -19 -39 0 -46 8 -4
12 -10 9 -15 -3 -5 7 -9 21 -9 20 0 26 -4 22 -15 -4 -8 -1 -17 5 -21 7 -4 8
-3 4 4 -8 13 3 16 44 12 14 -1 27 -6 28 -11 2 -5 11 -9 20 -9 15 0 15 -2 2
-10 -11 -7 -12 -10 -2 -10 9 0 11 -7 7 -20 -4 -13 -2 -20 6 -20 7 0 4 -7 -7
-15 -10 -8 -14 -14 -9 -13 6 2 10 -2 10 -7 0 -6 -3 -9 -7 -8 -5 2 -8 -2 -8 -7
0 -6 8 -10 18 -11 10 0 12 -3 4 -6 -6 -2 -10 -9 -6 -14 3 -5 -1 -9 -8 -9 -8 0
-6 -5 5 -11 14 -8 16 -14 6 -25 -9 -11 -9 -14 0 -14 7 0 9 -5 6 -10 -4 -6 -11
-8 -16 -5 -14 9 -11 -2 7 -19 9 -10 11 -16 4 -16 -7 0 -4 -7 5 -16 21 -21 90
-31 79 -12 -6 9 -3 9 9 -1 12 -9 17 -10 17 -2 0 7 5 9 10 6 6 -3 10 1 10 10 0
10 5 13 13 9 8 -5 8 -3 -2 9 -11 14 -11 18 3 23 9 3 13 10 10 15 -3 5 -10 7
-15 3 -6 -3 -5 3 2 14 11 17 10 24 -2 38 -12 16 -12 17 2 12 13 -5 16 -2 12
13 -3 10 -8 17 -12 15 -4 -3 -8 4 -8 15 -1 10 3 19 8 19 6 0 7 -5 3 -12 -4 -7
-3 -8 4 -4 9 5 9 13 2 27 -6 10 -7 19 -3 19 4 0 2 5 -5 12 -14 14 -16 32 -4
24 5 -3 9 1 9 9 0 8 -4 12 -9 9 -4 -3 -8 0 -8 5 0 6 12 11 26 11 14 0 23 4 20
8 -2 4 4 9 15 9 13 1 17 -2 12 -10 -4 -7 0 -6 10 2 9 7 17 9 17 4 0 -5 15 -9
34 -9 19 0 32 4 30 8 -3 5 -10 6 -15 3 -5 -4 -9 -1 -9 4 0 15 12 14 39 -5 23
-16 23 -16 16 7 -4 16 -3 20 3 11 5 -8 12 -13 16 -13 20 3 26 0 20 -11 -5 -8
0 -7 11 2 11 9 16 10 11 3 -4 -8 -1 -13 8 -13 19 0 21 -16 4 -26 -7 -5 -8 -3
-3 6 5 9 4 11 -4 6 -6 -4 -9 -12 -5 -17 3 -5 10 -7 15 -4 13 9 11 -9 -3 -24
-10 -11 -10 -13 0 -7 7 4 12 1 12 -8 0 -9 -5 -16 -11 -16 -5 0 -7 -5 -4 -10 4
-6 10 -8 14 -6 4 3 7 -6 7 -20 0 -13 -4 -24 -8 -24 -4 0 -8 -5 -8 -11 0 -5 4
-8 9 -4 6 3 6 -6 1 -25 -5 -18 -5 -30 1 -30 5 0 9 -5 9 -11 0 -5 -5 -7 -11 -3
-6 3 -4 -5 6 -19 10 -17 13 -27 6 -32 -6 -3 -11 -11 -11 -16 0 -6 4 -8 9 -4 5
3 12 1 15 -4 4 -5 1 -13 -5 -17 -8 -5 -9 -3 -4 7 7 12 5 12 -6 1 -12 -11 -12
-14 0 -21 9 -6 10 -11 2 -15 -6 -4 -11 -13 -11 -19 0 -7 4 -6 10 3 7 11 10 7
10 -18 0 -19 4 -31 10 -27 6 4 7 -1 3 -11 -5 -14 -8 -13 -20 7 -11 18 -13 19
-7 4 3 -11 7 -25 7 -32 0 -6 6 -9 12 -6 15 5 15 -39 0 -49 -6 -5 -5 -8 4 -8 8
0 11 -6 7 -16 -4 -10 -2 -13 6 -8 8 5 9 1 4 -12 -4 -10 -4 -15 0 -11 4 4 13
-1 21 -11 8 -9 11 -11 7 -3 -4 9 -3 12 4 7 6 -4 9 -13 6 -20 -3 -8 0 -17 7
-22 8 -5 10 -3 4 6 -5 8 -4 11 3 6 6 -4 8 -14 5 -23 -4 -10 -2 -14 4 -10 5 3
10 0 10 -8 0 -8 -4 -15 -9 -15 -4 0 -7 -3 -5 -8 1 -4 -2 -8 -7 -9 -5 0 -13 -8
-18 -17 -5 -9 -14 -13 -20 -10 -7 4 -8 2 -4 -4 4 -7 -3 -22 -15 -34 -12 -13
-18 -17 -14 -9 5 9 4 12 -3 7 -6 -4 -8 -14 -5 -22 4 -10 -2 -17 -16 -21 -20
-5 -20 -7 -5 -18 14 -9 14 -14 4 -20 -9 -6 -11 -4 -5 5 5 9 4 11 -4 6 -9 -6
-9 -11 0 -22 6 -7 15 -11 20 -8 5 3 6 -2 3 -10 -8 -20 6 -20 40 -3 14 8 22 18
18 23 -4 4 2 2 12 -6 11 -8 17 -10 13 -3 -4 7 0 14 10 17 10 4 29 16 43 27 14
11 19 17 11 13 -9 -5 -12 -3 -7 4 4 7 14 12 22 12 8 0 13 4 10 9 -3 5 1 11 9
14 10 4 12 1 8 -10 -4 -11 -2 -14 5 -9 7 4 12 15 12 24 1 16 1 16 10 0 6 -10
18 -14 30 -11 12 3 20 0 20 -6 0 -7 5 -9 10 -6 5 3 10 -1 10 -10 0 -11 5 -15
15 -11 11 4 19 -3 25 -19 5 -14 12 -25 15 -25 4 0 3 6 -1 13 -5 8 -3 8 9 -2 9
-7 14 -18 11 -23 -5 -7 -1 -7 11 0 14 7 22 6 34 -7 9 -9 12 -10 6 -2 -8 12 -6
13 8 8 22 -8 49 2 41 15 -4 6 4 4 17 -3 22 -11 23 -11 10 4 -12 15 -11 17 5
17 16 0 17 2 4 10 -14 9 -7 14 13 11 5 -1 6 3 2 9 -3 6 -10 8 -15 5 -12 -7
-31 30 -22 41 4 5 -2 2 -12 -6 -13 -10 -17 -10 -12 -3 4 7 2 14 -3 14 -6 1
-15 2 -21 3 -5 0 -21 13 -36 29 -14 16 -30 24 -37 20 -9 -5 -9 -3 -2 8 6 8 10
26 9 41 -1 21 3 26 18 23 11 -2 22 3 25 11 3 9 16 20 29 25 13 5 24 12 23 16
-3 21 2 24 18 12 11 -10 14 -10 9 -1 -4 7 -2 12 8 12 8 0 18 5 22 12 5 7 2 9
-7 4 -8 -4 -6 -1 3 7 10 8 15 17 11 20 -3 4 1 7 11 7 9 0 14 5 11 10 -3 6 -2
10 3 10 5 0 7 11 4 25 -2 14 -11 25 -19 25 -9 0 -13 6 -10 14 5 11 0 13 -22 6
-15 -4 -35 -4 -44 1 -13 7 -15 5 -12 -10 3 -15 -2 -19 -21 -16 -13 1 -27 -2
-31 -8 -4 -6 -1 -7 8 -2 8 4 5 -1 -6 -12 -11 -11 -23 -19 -27 -16 -5 2 -8 -3
-8 -12 0 -9 -4 -13 -10 -10 -5 3 -10 1 -10 -5 0 -6 -4 -8 -10 -5 -5 3 -10 -1
-10 -10 0 -9 -4 -13 -10 -10 -9 6 -14 -8 -11 -28 1 -4 -8 -3 -19 3 -17 9 -19
8 -13 -7 3 -10 3 -15 -2 -11 -4 4 -14 0 -22 -10 -8 -9 -12 -11 -8 -4 4 7 0 12
-9 12 -9 0 -16 6 -16 14 0 7 -8 20 -17 27 -17 13 -17 12 -4 -6 14 -19 14 -19
-2 -4 -21 19 -31 59 -14 59 7 0 7 4 -3 9 -8 6 -18 7 -22 5 -4 -3 -5 2 -2 10 3
9 11 16 18 16 6 1 0 7 -14 15 l-25 14 24 1 c24 0 24 0 5 16 -10 8 -14 13 -8
10 7 -3 15 1 18 9 3 9 -1 18 -9 21 -8 4 -15 10 -15 16 0 5 6 6 13 2 6 -4 9 -4
5 1 -4 4 -2 15 5 24 11 14 10 14 -6 2 -17 -13 -18 -12 -12 12 5 19 3 27 -6 27
-9 0 -10 3 -4 8 14 10 15 42 1 42 -6 0 -4 5 4 10 13 9 13 10 0 10 -13 0 -13 1
0 10 10 6 11 10 3 10 -7 0 -13 5 -13 11 0 5 4 8 8 5 5 -3 9 1 9 9 0 8 -4 12
-9 9 -16 -10 -8 9 10 22 16 12 16 12 -2 11 -13 -1 -19 5 -21 21 -1 17 2 21 14
17 9 -3 5 4 -9 15 -21 17 -22 19 -5 14 19 -5 19 -5 2 9 -15 13 -16 16 -2 27
13 11 14 10 9 -5 -5 -13 -4 -16 4 -11 7 4 12 15 12 24 0 13 2 14 9 3 7 -10 10
-10 16 -1 6 9 12 6 22 -11 8 -13 12 -17 9 -7 -4 13 0 15 22 8 15 -4 34 -11 43
-15 10 -3 20 -1 25 6 4 8 3 10 -4 5 -7 -4 -20 -3 -29 3 -15 8 -12 9 12 6 17
-2 34 -4 38 -4 5 -1 5 -6 1 -12 -3 -6 5 -4 19 6 17 11 24 22 20 32 -4 11 -2
14 5 9 7 -4 10 1 7 15 -2 12 -6 22 -7 23 -2 0 -13 7 -26 14 -13 7 -28 10 -34
6 -6 -4 -8 -3 -5 2 3 6 -4 16 -15 23 -18 11 -20 11 -15 -3 5 -13 3 -14 -13 -3
-11 6 -20 14 -20 18 0 3 -7 6 -15 6 -8 0 -12 -4 -9 -9 3 -4 0 -8 -5 -8 -6 0
-11 5 -11 11 0 5 -8 9 -17 8 -31 -3 -43 1 -43 12 0 5 6 7 13 3 8 -5 8 -2 -2 9
-15 18 -26 23 -16 7 3 -5 2 -10 -4 -10 -6 0 -10 26 -9 63 1 35 -2 69 -7 77 -5
8 -4 11 3 6 6 -3 13 -2 17 4 3 5 1 10 -6 10 -6 0 -9 8 -6 19 2 10 0 26 -5 35
-5 9 -6 16 -1 15 20 -3 27 2 13 11 -13 8 -13 13 -2 31 7 11 11 24 8 27 -3 3
-6 0 -6 -6 0 -7 -5 -12 -10 -12 -7 0 -7 7 1 21 8 16 8 28 0 46 -6 13 -7 22 -2
19 12 -8 19 14 13 37 -4 15 -7 16 -13 5 -6 -9 -9 -9 -9 -1 0 6 5 15 10 18 8 5
7 12 -2 23 -11 14 -10 15 7 8 16 -6 18 -5 8 5 -14 14 -18 53 -5 45 4 -2 8 4 8
14 0 12 -4 16 -11 10 -7 -5 -10 11 -10 51 0 32 4 59 9 59 6 0 5 5 -1 11 -6 6
-9 18 -6 27 5 11 3 13 -8 7 -12 -8 -12 -6 0 8 8 10 11 20 7 24 -3 3 -6 1 -6
-6 0 -8 -5 -7 -16 4 -12 11 -13 19 -5 29 8 9 7 13 -2 13 -6 1 -27 3 -45 6 -18
2 -35 1 -37 -3z m355 -904 c0 -2 -7 -7 -16 -10 -8 -3 -12 -2 -9 4 6 10 25 14
25 6z"/>
<path d="M1665 2171 c3 -5 1 -12 -5 -16 -5 -3 -10 -1 -10 4 0 15 -27 14 -33
-1 -4 -10 -6 -9 -6 1 -1 11 -4 11 -18 0 -9 -8 -14 -9 -11 -4 4 6 -2 11 -12 11
-14 0 -16 -4 -9 -12 8 -9 5 -11 -12 -7 -15 4 -20 3 -15 -6 4 -6 4 -10 -1 -9
-4 1 -19 -4 -32 -11 -13 -7 -21 -9 -18 -4 3 5 -3 9 -13 9 -15 0 -17 -3 -7 -16
6 -8 7 -12 2 -7 -4 4 -19 -3 -33 -15 -13 -13 -25 -22 -28 -20 -12 7 -34 1 -29
-8 3 -5 -1 -10 -9 -10 -9 0 -16 -6 -16 -14 0 -9 -9 -13 -24 -12 -17 2 -23 -1
-19 -10 3 -8 -6 -18 -21 -24 -15 -5 -29 -17 -32 -25 -4 -8 -12 -15 -20 -15 -7
0 -18 -9 -24 -20 -6 -11 -18 -20 -26 -20 -8 0 -12 -4 -9 -10 6 -9 -8 -14 -28
-11 -5 1 -5 -4 -1 -10 3 -6 -4 -21 -18 -33 -13 -11 -17 -17 -8 -11 10 6 9 2
-4 -12 -10 -13 -23 -20 -27 -17 -5 3 -6 -1 -3 -9 3 -8 0 -18 -7 -23 -8 -4 -10
-3 -5 4 4 7 5 12 2 12 -3 0 -10 -10 -17 -21 -7 -15 -8 -19 0 -15 7 5 9 1 5 -8
-3 -9 -10 -13 -15 -10 -5 3 -9 0 -9 -6 0 -6 -5 -8 -12 -4 -7 4 -8 3 -4 -5 4
-6 13 -8 19 -4 8 5 8 2 0 -9 -7 -8 -9 -19 -5 -23 4 -5 1 -5 -6 -1 -10 6 -13 3
-11 -10 4 -26 -10 -66 -21 -59 -5 3 -12 1 -15 -5 -4 -6 -3 -10 2 -9 22 4 25
-3 7 -17 -10 -8 -13 -13 -6 -9 15 7 16 -11 2 -20 -7 -5 -8 -11 -1 -19 6 -7 6
-17 1 -26 -6 -10 -3 -21 8 -34 9 -11 12 -17 6 -13 -6 3 -11 -1 -11 -9 0 -9 6
-13 15 -9 10 3 12 0 8 -10 -3 -8 -1 -15 4 -15 6 0 10 -5 10 -11 0 -5 -6 -7
-12 -3 -7 4 -4 -2 6 -14 11 -12 15 -22 11 -22 -5 0 0 -7 11 -16 10 -8 13 -13
7 -9 -9 4 -11 1 -7 -9 3 -9 11 -13 17 -9 6 4 8 0 4 -10 -4 -12 -1 -17 11 -18
12 0 13 -2 4 -6 -9 -3 -3 -12 17 -24 17 -10 31 -24 31 -29 0 -6 4 -8 10 -5 6
4 7 -1 3 -11 -5 -13 -3 -16 10 -11 12 4 17 1 17 -9 0 -11 6 -14 16 -10 8 3 13
2 10 -3 -3 -5 2 -15 11 -22 10 -8 14 -9 10 -2 -4 6 -3 14 3 18 6 3 10 -4 11
-17 0 -13 3 -17 6 -11 3 10 8 9 20 -2 8 -8 19 -13 24 -10 5 4 9 2 9 -3 0 -6 7
-13 16 -16 15 -6 15 -4 3 10 -13 16 -12 16 8 4 12 -8 19 -19 15 -25 -3 -5 2
-4 11 4 10 8 17 9 17 3 0 -10 44 -7 62 4 4 3 8 -3 9 -13 0 -11 3 -13 6 -5 4
10 8 10 19 1 11 -9 14 -8 15 7 1 14 3 13 9 -6 6 -19 8 -20 9 -6 1 15 4 16 16
6 13 -11 14 -10 9 6 -6 16 -5 17 7 6 17 -16 51 -16 68 1 11 10 13 10 7 0 -9
-15 10 -18 19 -3 4 6 11 8 16 4 5 -3 17 0 25 7 12 10 13 9 9 -3 -4 -9 0 -15 9
-15 8 0 12 5 9 10 -3 5 0 8 8 5 8 -3 20 1 27 9 10 10 18 10 35 1 19 -10 20 -9
9 4 -10 13 -9 15 13 13 14 -2 25 2 25 8 0 7 5 5 10 -3 8 -13 10 -13 10 1 0 19
26 33 42 22 7 -3 8 -1 4 5 -4 7 0 12 10 12 10 0 29 10 42 23 14 12 22 17 19
10 -5 -7 0 -9 14 -6 16 4 17 8 7 14 -10 7 -9 9 5 9 9 0 17 4 17 10 0 5 6 9 13
7 6 -1 11 4 9 12 -3 12 -1 12 14 0 12 -9 15 -9 10 -1 -4 6 -3 12 3 12 6 0 26
13 44 30 19 16 37 27 40 24 3 -3 4 3 4 13 -1 10 4 17 10 16 7 -2 12 3 10 10
-1 6 3 11 9 10 7 -1 11 5 10 15 0 10 6 16 16 16 10 -1 17 1 16 5 -2 20 3 31
14 25 7 -5 9 0 6 14 -3 12 -3 21 1 20 3 0 14 0 25 1 14 1 16 4 7 15 -14 16 5
35 31 31 11 -2 15 2 11 11 -3 8 -10 11 -17 8 -6 -3 -3 1 8 10 10 8 15 19 11
25 -6 10 8 16 30 11 5 -1 7 2 3 6 -4 4 -2 14 5 22 9 13 9 14 0 8 -7 -4 -13 -3
-13 1 0 5 6 15 13 22 10 11 10 13 0 7 -8 -4 -13 -1 -13 8 0 21 -9 20 -34 -1
-13 -11 -16 -12 -9 -3 9 12 7 15 -15 16 -15 1 -21 -1 -14 -3 6 -3 12 -9 12
-14 0 -6 -4 -7 -10 -4 -5 3 -10 1 -10 -5 0 -7 -7 -10 -15 -6 -8 3 -15 1 -15
-5 0 -6 -5 -7 -10 -4 -6 4 -10 3 -9 -2 1 -4 1 -15 0 -23 -1 -12 -3 -13 -10 -1
-7 11 -11 9 -20 -8 -7 -11 -16 -21 -22 -21 -6 0 -7 5 -3 12 5 7 3 8 -5 4 -7
-5 -10 -10 -7 -13 2 -3 -11 -18 -30 -35 -19 -16 -31 -34 -28 -39 3 -5 -2 -9
-11 -9 -12 0 -15 -5 -11 -16 5 -14 4 -15 -8 -5 -11 9 -16 9 -22 0 -5 -8 -3
-10 7 -4 8 5 6 -1 -5 -13 -10 -12 -23 -19 -29 -15 -7 4 -8 0 -3 -12 5 -15 4
-16 -9 -5 -12 10 -15 10 -15 -2 0 -21 -37 -51 -54 -45 -10 4 -13 1 -9 -9 3 -8
-1 -14 -10 -14 -8 0 -17 -6 -20 -14 -3 -8 -14 -13 -24 -12 -10 2 -21 -4 -24
-12 -3 -8 -12 -16 -20 -18 -32 -5 -44 -9 -51 -19 -4 -6 -8 -2 -8 8 0 9 -4 17
-10 17 -5 0 -9 -3 -9 -7 3 -19 -2 -33 -12 -33 -5 0 -7 5 -4 10 3 6 2 10 -3 10
-6 0 -12 -7 -16 -15 -4 -12 -11 -13 -31 -5 -36 14 -42 12 -20 -4 18 -13 18
-14 -8 -9 -16 3 -24 10 -20 17 5 8 3 8 -8 -1 -15 -12 -112 -16 -105 -4 6 10
-25 8 -42 -3 -6 -4 -12 -2 -12 3 0 6 -5 11 -11 11 -5 0 -8 -4 -5 -8 3 -5 -2
-9 -10 -9 -8 0 -13 6 -10 12 3 8 -5 11 -20 9 -22 -2 -23 0 -12 13 12 14 11 15
-9 5 -14 -8 -24 -9 -28 -2 -3 5 -15 15 -27 21 -14 8 -18 8 -14 0 5 -7 1 -9 -8
-5 -9 3 -14 10 -11 14 3 4 -2 11 -11 14 -10 4 -13 2 -8 -6 4 -7 3 -8 -4 -4 -7
4 -12 14 -12 22 0 8 -4 12 -10 9 -5 -3 -10 0 -10 7 0 7 -9 19 -21 26 -16 11
-18 16 -9 28 10 11 10 14 1 14 -7 0 -9 5 -6 10 3 6 0 10 -7 10 -9 0 -9 3 2 10
11 7 11 10 2 10 -7 0 -10 5 -7 10 4 6 12 7 18 3 7 -4 6 0 -2 10 -15 19 -26 23
-15 5 5 -7 3 -8 -6 -3 -10 6 -10 10 3 19 11 9 13 16 5 30 -8 14 -7 17 1 12 15
-10 14 7 -1 23 -7 7 -8 12 -3 11 22 -5 27 1 15 15 -11 13 -10 14 5 9 13 -5 16
-4 11 4 -4 7 -2 12 3 12 6 0 11 5 11 11 0 5 -6 7 -12 4 -7 -4 -2 3 12 15 14
12 19 19 13 15 -9 -4 -11 -1 -7 9 3 9 10 13 15 10 5 -3 12 3 16 12 9 24 40 54
48 46 3 -4 3 2 -1 13 -7 18 -6 18 9 6 15 -12 17 -12 12 1 -7 18 42 61 58 51 6
-3 7 -1 3 5 -4 7 -2 12 4 12 6 0 9 4 6 8 -2 4 5 14 17 22 21 12 21 12 8 -6 -7
-10 -2 -7 12 9 27 28 44 36 31 15 -5 -9 -2 -8 9 1 10 8 15 16 13 19 -8 8 68
43 81 37 7 -2 13 3 13 12 0 14 2 14 16 -3 8 -10 13 -14 10 -8 -8 16 19 25 32
12 6 -6 12 -6 17 3 6 8 4 10 -5 4 -9 -5 -11 -4 -6 3 5 9 13 9 27 1 18 -9 19
-8 10 8 -8 17 -6 19 20 17 19 -1 29 3 29 12 0 8 6 11 17 7 11 -4 14 -3 9 5 -4
7 -2 12 3 12 6 0 11 7 11 15 0 8 6 15 13 15 8 0 7 4 -3 10 -11 7 -11 10 -2 10
10 0 10 5 2 21 -7 11 -18 18 -25 15 -8 -3 -17 0 -21 6 -4 6 -3 8 3 5 5 -3 10
-1 10 6 0 7 -8 13 -18 13 -10 0 -15 -4 -13 -8 3 -4 0 -8 -5 -8 -6 0 -11 4 -11
9 0 5 -7 12 -16 15 -8 3 -12 2 -9 -3z m445 -605 c0 -2 -8 -10 -17 -17 -16 -13
-17 -12 -4 4 13 16 21 21 21 13z m-20 -219 c0 -2 -10 -12 -22 -23 l-23 -19 19
23 c18 21 26 27 26 19z"/>
<path d="M1410 2089 c0 -5 5 -7 10 -4 6 3 10 8 10 11 0 2 -4 4 -10 4 -5 0 -10
-5 -10 -11z"/>
<path d="M1525 1950 c-3 -6 1 -7 9 -4 18 7 21 14 7 14 -6 0 -13 -4 -16 -10z"/>
<path d="M2426 1608 c-9 -12 -16 -18 -16 -12 0 5 -9 10 -20 10 -10 0 -17 -2
-15 -4 8 -9 -16 -42 -26 -36 -6 3 -9 -2 -7 -12 2 -13 -2 -18 -14 -16 -10 1
-25 -9 -35 -25 -10 -15 -25 -34 -33 -41 -10 -9 -10 -11 -1 -6 9 4 12 2 9 -7
-3 -8 -11 -13 -17 -11 -8 1 -9 -2 -5 -10 11 -18 12 -48 2 -48 -5 0 -6 -5 -2
-11 3 -6 0 -15 -7 -20 -10 -6 -11 -9 -1 -9 6 0 12 -5 12 -11 0 -5 -6 -7 -12
-3 -8 5 -7 0 2 -11 12 -14 12 -19 2 -23 -10 -3 -8 -8 5 -18 17 -13 17 -13 -2
-14 -15 0 -17 -2 -6 -9 7 -5 10 -14 7 -20 -4 -6 -2 -11 3 -11 6 0 11 -5 11
-11 0 -5 -6 -7 -12 -4 -7 4 -4 -1 6 -9 11 -9 16 -16 12 -16 -5 0 -3 -6 3 -13
6 -8 8 -17 5 -20 -4 -3 1 -13 10 -22 9 -9 16 -24 16 -33 0 -15 2 -15 10 -2 9
13 10 13 11 0 1 -8 1 -19 0 -23 -1 -5 4 -5 10 -1 6 3 15 1 19 -7 5 -7 22 -14
39 -15 16 -1 34 -5 40 -9 6 -3 11 -2 11 4 0 6 7 8 16 4 10 -4 20 0 25 10 5 9
17 13 29 10 12 -3 22 1 26 11 3 9 10 13 15 10 14 -8 41 17 35 32 -3 9 1 11 12
7 9 -3 14 -3 10 2 -4 4 3 18 17 31 16 15 20 24 12 27 -9 4 -9 6 1 6 6 1 12 8
12 17 0 8 5 12 11 8 8 -4 9 1 4 16 -4 14 -3 20 3 16 6 -4 10 34 11 103 1 60
-2 112 -8 115 -5 3 -7 -4 -5 -16 4 -20 3 -20 -4 -4 -5 11 -8 29 -7 40 1 12 -6
27 -17 34 -10 7 -18 19 -18 27 0 9 -6 12 -17 8 -11 -4 -14 -3 -9 5 4 7 3 12
-3 12 -6 0 -8 8 -4 18 5 14 3 15 -8 5 -18 -18 -29 -16 -30 5 0 9 -3 12 -5 5
-4 -8 -13 -9 -29 -3 -16 6 -27 6 -31 -1 -4 -7 -13 -4 -24 6 -17 15 -19 15 -34
-7z m27 -2 c4 -10 1 -13 -8 -9 -8 3 -12 9 -9 14 7 12 11 11 17 -5z m52 -6 c3
-5 1 -10 -4 -10 -6 0 -11 5 -11 10 0 6 2 10 4 10 3 0 8 -4 11 -10z m-21 -121
c-2 -4 3 -9 11 -13 8 -3 15 -13 15 -21 0 -10 5 -13 13 -9 9 6 9 5 -1 -8 -10
-13 -9 -18 5 -29 17 -13 17 -13 3 6 -14 18 -14 19 2 7 16 -13 14 -47 -2 -37
-5 3 -12 0 -16 -6 -4 -8 -3 -9 4 -5 7 4 12 2 12 -4 0 -6 6 -8 13 -5 6 4 4 0
-5 -8 -18 -14 -25 -33 -10 -23 5 3 9 -1 9 -8 0 -8 -6 -12 -13 -9 -6 2 -15 -1
-20 -8 -4 -7 -3 -10 4 -5 6 3 13 2 17 -4 3 -5 -1 -10 -10 -10 -9 0 -21 -13
-26 -30 -6 -16 -15 -31 -20 -31 -5 -1 -15 -2 -21 -3 -7 -1 -12 -8 -10 -15 1
-8 -7 -6 -22 6 -26 18 -36 40 -13 27 6 -4 1 5 -13 21 -14 16 -19 25 -11 20 11
-6 13 -3 8 14 -4 17 -2 21 8 17 9 -3 12 0 8 9 -3 8 -9 13 -13 10 -5 -3 -12 0
-16 6 -4 8 -3 9 5 5 8 -6 11 2 8 28 -4 36 13 73 49 102 10 8 13 12 5 8 -8 -4
-12 -3 -8 2 3 6 17 10 31 10 13 0 23 -3 20 -7z"/>
<path d="M575 1531 c-3 -5 -2 -12 3 -15 5 -3 9 1 9 9 0 17 -3 19 -12 6z"/>
<path d="M2244 1519 c-4 -7 -3 -9 4 -5 6 3 13 -2 15 -11 4 -16 5 -16 6 -1 1
21 -15 32 -25 17z"/>
<path d="M115 1450 c-3 -5 -1 -10 4 -10 6 0 11 5 11 10 0 6 -2 10 -4 10 -3 0
-8 -4 -11 -10z"/>
<path d="M1027 619 c7 -7 15 -10 18 -7 3 3 -2 9 -12 12 -14 6 -15 5 -6 -5z"/>
</g>
</svg>
